<svg width="152" height="20" viewBox="0 0 152 20" fill="none" xmlns="http://www.w3.org/2000/svg">
  <path d="M0 19.2816V1.40403H6.31837L9.99184 10.8326H10.4816L14.1306 1.40403H20.5714V19.2816H16.0653V4.02443L16.7755 4.07341L12.1714 15.6816H8.03265L3.40408 4.07341L4.16327 4.02443V19.2816H0Z" fill="#ffffff" />
  <path d="M28.5375 19.7224C27.0028 19.7224 25.811 19.2244 24.962 18.2285C24.1293 17.2163 23.713 15.6734 23.713 13.5999V5.76321H28.1702V13.7224C28.1702 14.3265 28.3497 14.8163 28.7089 15.1918C29.0681 15.5673 29.5497 15.755 30.1538 15.755C30.7579 15.755 31.2477 15.5673 31.6232 15.1918C31.9987 14.8163 32.1865 14.3101 32.1865 13.6734V5.76321H36.6436V19.2816H33.1171V13.5999H33.362C33.362 14.9877 33.1824 16.1387 32.8232 17.053C32.4804 17.951 31.9661 18.6204 31.2804 19.0612C30.5946 19.502 29.7457 19.7224 28.7334 19.7224H28.5375Z" fill="#ffffff" />
  <path d="M40.1797 19.2816V5.56729C40.1797 3.98362 40.6369 2.80811 41.5511 2.04076C42.4654 1.25709 43.8205 0.865251 45.6165 0.865251H46.8165L45.5185 4.14688C45.1267 4.14688 44.8246 4.25301 44.6124 4.46525C44.4001 4.6775 44.294 4.97954 44.294 5.37137V19.2816H40.1797ZM49.1185 19.2816V5.71423C49.1185 4.13056 49.5756 2.95505 50.4899 2.1877C51.4042 1.40403 52.7593 1.01219 54.5552 1.01219H56.196L54.4573 4.29382C54.0654 4.29382 53.7634 4.39994 53.5511 4.61219C53.3389 4.82443 53.2328 5.12648 53.2328 5.51831V19.2816H49.1185ZM58.2777 19.2816V5.76321H62.7348V19.2816H58.2777ZM38.7103 9.1428V5.91015H55.8287L53.2328 9.1428H38.7103ZM56.8083 8.99586V5.76321H62.7348V8.99586H56.8083ZM60.0899 4.68566C59.2899 4.68566 58.694 4.48158 58.3022 4.07341C57.9267 3.64892 57.7389 3.11015 57.7389 2.45709C57.7389 1.80403 57.9267 1.27341 58.3022 0.865251C58.694 0.440761 59.2899 0.228516 60.0899 0.228516C60.9063 0.228516 61.5022 0.440761 61.8777 0.865251C62.2532 1.27341 62.4409 1.80403 62.4409 2.45709C62.4409 3.11015 62.2532 3.64892 61.8777 4.07341C61.5022 4.48158 60.9063 4.68566 60.0899 4.68566Z" fill="#ffffff" />
  <path d="M66.027 19.2816V5.76321H69.5535V11.5673H69.3576C69.3576 10.1632 69.5372 9.00403 69.8964 8.08974C70.2555 7.15913 70.7862 6.46525 71.4882 6.00811C72.2066 5.55096 73.0719 5.32239 74.0841 5.32239H74.28C75.8147 5.32239 76.9984 5.83668 77.8311 6.86525C78.68 7.8775 79.1045 9.43668 79.1045 11.5428V19.2816H74.6474V11.4204C74.6474 10.7999 74.4596 10.2938 74.0841 9.90199C73.7249 9.49382 73.227 9.28974 72.5902 9.28974C71.9535 9.28974 71.4392 9.49382 71.0474 9.90199C70.6719 10.2938 70.4841 10.8163 70.4841 11.4693V19.2816H66.027Z" fill="#ffffff" />
  <path d="M90.8682 19.2816V4.88158H95.4233V19.2816H90.8682ZM85.9703 5.37137V1.40403H100.321V5.37137H85.9703Z" fill="#ffffff" />
  <path d="M107.048 19.7714C105.905 19.7714 104.893 19.5755 104.011 19.1836C103.129 18.7918 102.387 18.2612 101.782 17.5918C101.178 16.9224 100.713 16.1714 100.387 15.3387C100.076 14.5061 99.9212 13.6489 99.9212 12.7673V12.2775C99.9212 11.3632 100.076 10.4897 100.387 9.65709C100.713 8.80811 101.17 8.05709 101.758 7.40403C102.362 6.75097 103.097 6.23668 103.962 5.86117C104.827 5.46933 105.807 5.27341 106.901 5.27341C108.354 5.27341 109.587 5.59995 110.599 6.25301C111.611 6.90607 112.387 7.77137 112.925 8.84892C113.464 9.91015 113.733 11.0693 113.733 12.3265V13.7469H101.782V11.3469H111.162L109.619 12.4244C109.619 11.6571 109.513 11.0122 109.301 10.4897C109.105 9.95096 108.803 9.5428 108.395 9.26525C108.003 8.9877 107.505 8.84892 106.901 8.84892C106.313 8.84892 105.799 8.9877 105.358 9.26525C104.933 9.52647 104.607 9.93464 104.378 10.4897C104.15 11.0285 104.036 11.7142 104.036 12.5469C104.036 13.2979 104.142 13.951 104.354 14.5061C104.566 15.0448 104.893 15.4612 105.333 15.755C105.774 16.0489 106.346 16.1959 107.048 16.1959C107.668 16.1959 108.174 16.0897 108.566 15.8775C108.974 15.6653 109.26 15.3795 109.423 15.0204H113.489C113.293 15.9346 112.901 16.751 112.313 17.4693C111.742 18.1877 111.007 18.751 110.109 19.1591C109.227 19.5673 108.207 19.7714 107.048 19.7714Z" fill="#ffffff" />
  <path d="M122.254 19.7714C121.079 19.7714 120.058 19.5836 119.193 19.2081C118.328 18.8163 117.601 18.2938 117.013 17.6408C116.442 16.9877 116.009 16.2448 115.715 15.4122C115.438 14.5795 115.299 13.7142 115.299 12.8163V12.3265C115.299 11.3795 115.446 10.4816 115.74 9.6326C116.05 8.78362 116.499 8.0326 117.087 7.37954C117.675 6.72648 118.401 6.21219 119.266 5.83668C120.132 5.46117 121.128 5.27341 122.254 5.27341C123.495 5.27341 124.589 5.51831 125.536 6.00811C126.483 6.4979 127.234 7.17546 127.789 8.04076C128.36 8.88974 128.679 9.86933 128.744 10.9795H124.385C124.336 10.4408 124.132 9.98362 123.773 9.60811C123.43 9.2326 122.924 9.04484 122.254 9.04484C121.683 9.04484 121.209 9.19178 120.834 9.48566C120.475 9.77954 120.205 10.1877 120.026 10.7101C119.846 11.2326 119.756 11.853 119.756 12.5714C119.756 13.2408 119.83 13.8367 119.977 14.3591C120.14 14.8816 120.401 15.2897 120.76 15.5836C121.136 15.8612 121.634 15.9999 122.254 15.9999C122.711 15.9999 123.095 15.9183 123.405 15.755C123.715 15.5918 123.96 15.3632 124.14 15.0693C124.32 14.7591 124.434 14.3999 124.483 13.9918H128.842C128.777 15.1346 128.45 16.1387 127.862 17.004C127.291 17.8693 126.524 18.5469 125.56 19.0367C124.597 19.5265 123.495 19.7714 122.254 19.7714Z" fill="#ffffff" />
  <path d="M131.102 19.2816V1.40403H135.559V11.5918H134.971C134.971 10.2204 135.143 9.06933 135.486 8.13872C135.828 7.20811 136.326 6.50607 136.979 6.0326C137.649 5.55913 138.473 5.32239 139.453 5.32239H139.649C141.118 5.32239 142.237 5.85301 143.004 6.91423C143.788 7.97546 144.179 9.53464 144.179 11.5918V19.2816H139.722V11.4204C139.722 10.7999 139.535 10.2938 139.159 9.90199C138.784 9.49382 138.286 9.28974 137.665 9.28974C137.045 9.28974 136.539 9.49382 136.147 9.90199C135.755 10.2938 135.559 10.8163 135.559 11.4693V19.2816H131.102Z" fill="#ffffff" />
  <path d="M149.384 19.5599C150.662 19.5599 151.801 18.4815 151.819 17.1248C151.801 15.8029 150.662 14.7245 149.384 14.7245C148.036 14.7245 146.931 15.8029 146.948 17.1248C146.931 18.4815 148.036 19.5599 149.384 19.5599Z" fill="#ffffff" />
</svg>