<svg width="195" height="30" viewBox="0 0 195 30" fill="none" xmlns="http://www.w3.org/2000/svg">
<path d="M27.633 23.3604C26.888 22.7644 26.4576 21.8705 26.4576 20.9103V20.662C26.4576 19.7019 26.888 18.7914 27.633 18.212C28.4938 17.5332 29.0401 16.4738 29.0401 15.2818C29.0401 14.1396 28.5269 13.1132 27.7323 12.4345C26.9377 11.7558 26.4576 10.7459 26.4576 9.6699C26.4576 8.70975 26.888 7.7827 27.633 7.18674C28.7587 6.29281 29.3546 4.7698 28.8911 3.14747C28.56 1.97211 27.633 1.02851 26.4742 0.697417C24.918 0.233894 23.4447 0.813298 22.5673 1.88933C21.9051 2.7005 20.9119 3.16402 19.8689 3.16402C18.9088 3.16402 17.9983 2.71705 17.4023 1.95555C16.5084 0.813298 15.0185 0.217339 13.4293 0.680863C12.2705 1.02851 11.36 1.95555 11.0123 3.13091C10.2839 5.64718 12.138 7.9648 14.5219 7.9648C15.6476 7.9648 16.6574 7.45161 17.3196 6.64045C17.9983 5.82928 18.9916 5.3492 20.0345 5.3492C20.9946 5.3492 21.9051 5.77962 22.5011 6.54112C22.6666 6.73978 22.8322 6.93843 23.0308 7.10397C23.8254 7.7827 24.289 8.75941 24.289 9.80234C24.289 10.7956 23.8586 11.7392 23.0971 12.3517C22.8653 12.5338 22.6666 12.749 22.5011 12.9642C21.9051 13.7257 20.9946 14.1561 20.0345 14.1561H19.8689C18.9088 14.1561 17.9983 13.7092 17.4023 12.9477C16.5249 11.822 15.035 11.226 13.4458 11.6895C12.287 12.0372 11.3765 12.9642 11.0289 14.1396C10.3005 16.6724 12.1546 18.9735 14.5219 18.9735C15.6807 18.9735 16.7236 18.4106 17.4023 17.5498C17.9817 16.7883 18.8757 16.3579 19.8193 16.3579H20.0345C20.9946 16.3579 21.9051 16.7883 22.5011 17.5498C22.6832 17.7816 22.8984 17.9968 23.1302 18.1789C23.8917 18.7748 24.3055 19.7184 24.3055 20.6951V20.8607C24.3055 21.8208 23.8751 22.7479 23.1302 23.3438C22.021 24.2378 21.4085 25.7608 21.872 27.3831C22.2031 28.5585 23.1136 29.4855 24.2724 29.8332C26.7556 30.5781 29.0235 28.6909 29.0235 26.274C29.0235 25.0986 28.4772 24.0391 27.633 23.3604Z" fill="white"/>
<path d="M15.5968 22.7148C14.0407 22.2513 12.5674 22.8307 11.6734 23.9233C11.0444 24.7179 10.1008 25.1814 9.1075 25.1814C8.08113 25.1814 7.12097 24.7014 6.4588 23.8902C6.29325 23.6915 6.11115 23.5094 5.9125 23.3439C5.151 22.7479 4.73714 21.8043 4.73714 20.8276C4.73714 19.7847 5.18411 18.7914 5.97872 18.1127C6.78989 17.434 7.30307 16.3911 7.30307 15.2488C7.30307 14.0569 6.75678 12.9974 5.89595 12.3187C5.151 11.7227 4.72058 10.8288 4.72058 9.86862C4.72058 8.79258 5.16755 7.78276 5.97872 7.08748C7.0382 6.19354 7.5845 4.70364 7.13753 3.13097C6.80644 1.95561 5.89595 1.02856 4.73714 0.68092C2.27053 -0.0640281 0.00257703 1.82317 0.00257703 4.24012C0.00257703 5.43204 0.548873 6.49152 1.4097 7.17025C2.15465 7.76621 2.58507 8.66014 2.58507 9.63685C2.58507 10.7129 2.10499 11.7393 1.29382 12.4346C0.499209 13.1133 0.00257703 14.1397 0.00257703 15.2654C0.00257703 16.4242 0.515764 17.4505 1.32693 18.1293C2.12154 18.808 2.58507 19.8013 2.58507 20.8442C2.58507 21.8209 2.15465 22.7479 1.39315 23.3605C0.284002 24.2544 -0.295402 25.7774 0.151567 27.3832C0.482655 28.5585 1.4097 29.5021 2.56851 29.8332C4.15773 30.2968 5.64763 29.7008 6.52501 28.5751C7.12097 27.8136 8.03147 27.3666 8.99162 27.3666C10.0511 27.3666 11.0444 27.8467 11.7065 28.6579C12.3853 29.469 13.3785 29.9822 14.5042 29.9822C16.8715 29.9822 18.7256 27.6646 17.9972 25.1483C17.6661 23.9895 16.7556 23.0625 15.5968 22.7148Z" fill="white"/>
<path d="M183.856 24.8172L183.326 24.7345L182.83 24.5855L182.366 24.3868L181.936 24.1219L181.538 23.824L181.174 23.4598L180.86 23.0459L180.678 22.7645L180.529 22.4831L180.38 22.1685L180.264 21.854L180.115 21.4236L179.999 20.9932L179.883 20.5296L179.817 20.0496L179.734 19.5364L179.701 19.0066L179.668 18.4438V17.8644L179.684 17.1029L179.734 16.4076L179.817 15.762L179.966 15.1495L180.115 14.57L180.33 14.0403L180.595 13.5602L180.876 13.1133L181.191 12.6663L181.555 12.3186L181.919 12.0041L182.35 11.7558L182.78 11.5406L183.26 11.4247L183.757 11.3419L184.287 11.3254L184.816 11.3419L185.329 11.4247L185.826 11.5406L186.29 11.7392L186.72 11.971L187.117 12.269L187.498 12.6001L187.664 12.7987L187.846 13.0305L188.111 13.4775L188.359 13.9906L188.558 14.5369L188.64 14.8184L188.74 15.1329L188.856 15.7454L188.905 16.0599L188.955 16.4076L188.971 16.7387L189.005 17.1029L189.038 17.8644L189.021 18.1458V18.4438L189.005 19.0066L188.955 19.5364L188.922 19.7847L188.905 19.8012V19.8344V19.9006V20.033L188.872 20.1489L188.856 20.1654V20.1985V20.2648L188.822 20.5131L188.74 20.9766L188.673 21.1918L188.64 21.2911L188.624 21.3077V21.3408V21.407L188.508 21.8374L188.359 22.152L188.226 22.4665L188.077 22.7479L187.928 23.0294L187.581 23.4432L187.382 23.6253L187.217 23.824L187.018 23.973L186.919 24.0392L186.869 24.0723L186.836 24.1219L186.422 24.3868L186.174 24.4696L185.959 24.5689L185.478 24.7179L184.965 24.8007L184.7 24.8172H184.568H184.502H184.469L184.452 24.8338L183.856 24.8172ZM191.852 0.00216675H189.054V9.70305L188.789 9.30575L188.508 8.94155L188.193 8.57735L187.879 8.24626L187.531 7.91517L187.167 7.6172L186.77 7.33577L186.372 7.08745L185.959 6.87225L185.545 6.7067L185.098 6.54116L184.667 6.44183L184.187 6.34251L183.724 6.29284L183.227 6.24318H182.73H182.234L181.77 6.27629L180.86 6.44183L179.982 6.7067L179.171 7.0709L178.757 7.26955L178.377 7.51787L177.648 8.09727L177.284 8.41181L176.953 8.75945L176.324 9.55406L175.744 10.3818L175.48 10.8288L175.264 11.3088L174.851 12.269L174.668 12.7822L174.536 13.3285L174.387 13.8582L174.271 14.4211L174.172 15.0005L174.106 15.613L174.039 16.2089L174.006 16.838L173.973 18.1624L173.99 19.1225L174.039 20.0992L174.072 20.5462L174.139 21.0097L174.288 21.8871L174.42 22.5658L174.602 23.2611L174.801 23.9067L175.049 24.5358L175.297 25.1152L175.612 25.6781L175.943 26.2244L176.324 26.7375L176.638 27.1017L177.003 27.4825L177.367 27.8136L177.781 28.1281L178.195 28.393L178.658 28.6413L179.138 28.8731L179.668 29.0883L180.694 29.4028L181.207 29.5187L181.754 29.618L182.813 29.767L183.343 29.8001L183.889 29.8167L184.369 29.8001L184.618 29.7836H184.866L185.826 29.6842L185.925 29.6511L185.975 29.6346H186.041L186.29 29.6015L186.77 29.5187L187.001 29.4525L187.25 29.4028L187.73 29.2869L188.177 29.1379L188.276 29.0883L188.392 29.0552L188.64 28.9889L189.534 28.6413L189.965 28.4261L190.412 28.2109L190.842 27.9626L191.289 27.7143L191.587 27.4825L191.902 27.2342L192.034 27.0852L192.1 27.019L192.133 26.9859L192.183 26.9693L192.315 26.8203L192.382 26.7541L192.415 26.721L192.464 26.7044L192.713 26.3899L192.961 26.0754L193.06 25.8933L193.077 25.8436L193.11 25.8105L193.176 25.7443L193.276 25.5622L193.292 25.5125L193.325 25.4794L193.391 25.4132L193.574 25.0324L193.756 24.6351L193.822 24.4199L193.855 24.3206L193.872 24.2709L193.905 24.2378L194.054 23.8074L194.17 23.3439L194.285 22.8804L194.368 22.3837L194.451 21.8871V21.7216L194.467 21.5891L194.501 21.3077V21.1256L194.517 20.9766L194.55 20.6952L194.583 20.0992L194.6 19.5198V2.88263L194.583 2.7502V2.63432L194.55 2.386L194.434 1.9887L194.269 1.6245L194.054 1.2603L193.772 0.929214L193.557 0.697452L193.342 0.515353L193.11 0.349809L192.895 0.233928L192.63 0.134602L192.365 0.0849388L192.1 0.0352756H191.852V0.00216675Z" fill="white"/>
<path d="M138.63 15.1991L138.713 14.6859L138.796 14.2059L138.945 13.7754L139.094 13.345L139.325 12.9808L139.574 12.6497L139.872 12.3518L140.137 12.0538L140.468 11.822L140.799 11.6068L141.18 11.4413L141.56 11.2923L141.974 11.2095L142.388 11.1599L142.852 11.1433L143.315 11.1599L143.779 11.2095L144.209 11.2923L144.623 11.4413L144.987 11.6068L145.335 11.822L145.649 12.0538L145.864 12.3518L145.964 12.4676L146.08 12.6332L146.278 12.9643L146.46 13.3285L146.609 13.7258L146.725 14.1728L146.825 14.6694L146.907 15.1826L146.974 15.762H138.564L138.63 15.1991ZM142.04 6.21008L141.461 6.25975L140.882 6.30941L140.335 6.42529L139.789 6.52462L139.276 6.69016L138.779 6.87226L138.316 7.10402L137.869 7.28612L137.455 7.51788L136.693 8.04762L135.965 8.66014L135.617 8.99122L135.303 9.37197L134.79 10.0176L134.359 10.7294L134.061 11.2426L133.829 11.7889L133.565 12.418L133.349 13.1133L133.167 13.8086L133.018 14.5701L132.902 15.3316L132.82 16.1593L132.77 16.987L132.753 17.8809L132.77 18.9404L132.786 19.4536L132.836 19.9668L132.952 20.927L133.134 21.854L133.25 22.45L133.416 23.0294L133.598 23.5757L133.829 24.122L133.962 24.453L134.127 24.7841L134.492 25.4297L134.674 25.7277L134.905 26.0423L135.369 26.6217L135.7 26.9859L136.064 27.3335L136.842 27.9626L137.24 28.244L137.67 28.5089L138.1 28.7406L138.564 28.9724L139.027 29.1545L139.508 29.3035L140.004 29.4359L140.534 29.5518L141.064 29.6346L141.61 29.7008L142.173 29.7339L142.769 29.7505L142.967 29.7339H143.183L143.63 29.7173L143.828 29.6842L143.928 29.6677H144.043L144.49 29.6346L144.904 29.5684L145.318 29.5021L145.401 29.469L145.5 29.4525L145.699 29.4194L146.113 29.3366L146.477 29.1876L146.858 29.0717L147.023 28.9889L147.205 28.9227L147.586 28.7737L147.917 28.5916L148.265 28.4261L148.596 28.2109L148.944 28.0122L149.225 27.797L149.357 27.6646L149.424 27.5984L149.457 27.5653L149.506 27.5487L149.821 27.3004L150.086 27.019L150.218 26.8865L150.284 26.8203L150.318 26.7872L150.367 26.7707L150.384 26.721L150.417 26.6879L150.483 26.6217L150.616 26.4727L150.632 26.423L150.665 26.3899L150.731 26.3237L150.864 26.1913L150.963 26.0092L150.98 25.9595L151.013 25.9264L151.079 25.8602L151.311 25.5456L151.344 25.4463L151.361 25.3966L151.394 25.3635L151.493 25.1814L151.708 24.8338L151.874 24.453L151.907 24.3537L151.923 24.304L151.956 24.2709L152.056 24.0888L152.122 23.8736L152.155 23.7743L152.172 23.7246L152.205 23.6915L152.271 23.4763L152.304 23.377L152.321 23.3273L152.354 23.2942L152.47 22.8638L152.602 22.45H148.463L147.983 22.4665L147.586 22.5493L147.222 22.6817L146.957 22.8804L146.709 23.079L146.527 23.2611L146.444 23.3273L146.394 23.4101L146.345 23.5591L146.113 23.7909L145.914 24.0226L145.682 24.2047L145.566 24.2709L145.467 24.3372L145.186 24.453L145.053 24.5027L144.937 24.5689L144.788 24.602L144.656 24.6517L144.375 24.7345L144.209 24.751L144.06 24.7841L143.745 24.8338L143.398 24.8669H143.232H143.15L143.083 24.8835L142.554 24.8503L142.057 24.8007L141.593 24.6848L141.196 24.5358L140.799 24.3372L140.435 24.1054L140.104 23.824L139.855 23.526L139.557 23.1783L139.425 22.9797L139.325 22.781L139.21 22.5493L139.127 22.3341L138.978 21.8706L138.829 21.3408L138.763 21.0594L138.73 20.7945L138.647 20.1986L138.63 19.586H152.917V19.5364V19.5033V19.4867H152.933L152.966 19.3708V19.2881L152.983 19.2218V19.1225V19.0729L152.999 19.0397V18.9901V18.9239V18.7087V18.4107V18.0961L152.983 17.3843L152.95 16.7056L152.9 16.0434L152.834 15.4143L152.735 14.7853L152.619 14.2059L152.486 13.6265L152.354 13.0802L152.172 12.5339L151.973 12.0207L151.758 11.5075L151.543 11.0274L151.278 10.5473L150.996 10.1169L150.698 9.68651L150.384 9.30576L150.036 8.95811L149.689 8.64358L149.308 8.32905L148.944 8.04762L148.298 7.60065L147.95 7.402L147.619 7.25301L147.255 7.07091L146.858 6.88881L146.113 6.65705L145.699 6.52462L145.302 6.44184L144.457 6.30941L143.563 6.22664L142.653 6.21008H142.04V6.21008Z" fill="white"/>
<path d="M162.517 6.2763L161.656 6.40874L160.812 6.59083L160.001 6.83915L159.189 7.12058L158.411 7.46822L157.65 7.86552L156.922 8.3456L156.541 8.57736L156.21 8.87534L155.895 9.17332L155.614 9.53752L155.349 9.91827L155.101 10.3321L154.885 10.7791L154.703 11.2592L154.521 11.7227L154.389 12.269L154.256 12.8153L154.173 13.4113L154.074 14.0403L154.025 14.6859L153.991 15.3812V16.0931V29.3531H159.752V14.9177L159.769 14.4045L159.819 13.9244L159.901 13.494L160.034 13.1133L160.199 12.7491L160.398 12.4345L160.63 12.1366L160.911 11.9048L161.193 11.673L161.491 11.5075L161.805 11.3419L162.136 11.2261L162.467 11.0936L162.831 11.044L163.56 10.9943H163.907L164.255 11.044L164.603 11.0936L164.967 11.2261L165.281 11.3419L165.613 11.5075L165.911 11.673L166.242 11.9048L166.49 12.1366L166.755 12.4345L166.937 12.7491L167.136 13.1133L167.251 13.494L167.351 13.9244L167.4 14.4045L167.434 14.9177V26.4727V26.7707L167.467 27.0686L167.516 27.3335L167.632 27.6149L167.732 27.8632L167.864 28.1116L168.013 28.3268L168.228 28.542L168.41 28.7241L168.609 28.8896L168.841 29.0221L169.089 29.1545L169.354 29.2373L169.619 29.3035L169.917 29.3366L170.231 29.3531H173.128V16.0931L173.112 15.3316L173.079 14.6528L173.012 13.9741L172.913 13.345L172.797 12.7325L172.681 12.1697L172.532 11.6234L172.35 11.1267L172.135 10.6301L171.903 10.1997L171.655 9.76928L171.39 9.40508L171.076 9.04089L170.761 8.7098L170.43 8.41182L170.066 8.18006L169.288 7.69998L168.493 7.30267L168.079 7.12058L167.698 6.95503L166.871 6.69016L166.026 6.4584L165.166 6.32596L164.288 6.22664L163.411 6.21008L162.517 6.2763Z" fill="white"/>
<path d="M81.4673 24.7179L80.9872 24.5524L80.5237 24.3371L80.1264 24.0888L79.8615 23.8571L79.6298 23.6088L79.398 23.3273L79.1994 23.0459L79.0007 22.7479L78.7689 22.301L78.6034 21.8374L78.471 21.4401L78.3716 20.9932L78.2723 20.5296L78.2061 20.0496L78.1399 19.5364L78.1068 18.9901L78.0737 18.4272V17.8478L78.0902 17.0863L78.1399 16.391L78.2226 15.7289L78.3716 15.1163L78.5206 14.5204L78.7358 13.9741L78.9841 13.4609L79.2821 13.0139L79.5967 12.5835L79.9609 12.2524L80.3582 11.9544L80.7886 11.7227L81.2521 11.524L81.7487 11.4082L82.2785 11.3254L82.8413 11.3088H83.1559L83.4704 11.3419L83.7518 11.3916L84.0663 11.4744L84.265 11.524L84.4802 11.6068L84.8941 11.822L85.0762 11.9213L85.2748 12.0703L85.4404 12.2028L85.6225 12.3849L85.9039 12.6663L86.2184 13.0967L86.4833 13.5437L86.7482 14.0237L86.8475 14.2721L86.9468 14.5535L87.1289 15.1329L87.2448 15.7454L87.3607 16.391L87.3772 16.7221L87.4103 17.0863L87.4434 17.8478L87.4269 18.1292V18.4272L87.3938 18.9901L87.3441 19.5198L87.311 19.7681L87.2945 19.7847V19.8178V19.884V20.0164L87.1951 20.4965L87.0958 20.96L87.0296 21.1753L86.9965 21.2746L86.9799 21.2911V21.3242V21.3905L86.864 21.8209L86.6488 22.3341L86.5164 22.5327L86.4336 22.7314L86.235 23.0293L85.9204 23.3935L85.7549 23.5756L85.6059 23.7577L85.4238 23.9067L85.2583 24.0392L84.8775 24.304L84.7616 24.3371L84.6623 24.3868L84.4636 24.4861L84.2484 24.5524L84.0498 24.6351L83.8015 24.6848H83.7353H83.6194L83.6028 24.7013L83.5035 24.7345L83.2386 24.7676L83.0069 24.8007H82.6427L82.295 24.7841H81.9805L81.4673 24.7179ZM75.2097 0.00216675H72.412V19.5033L72.4286 20.3641L72.4783 21.2084L72.561 22.003L72.6107 22.3672L72.6935 22.7479L72.8756 23.5591L73.1239 24.3371L73.2563 24.6848L73.4219 25.0324L73.5874 25.347L73.7861 25.6781L74.1834 26.2575L74.3986 26.5223L74.6469 26.7872L74.8952 27.019L75.1601 27.2507L75.4415 27.4494L75.7395 27.6646L76.501 28.1281L77.2956 28.5254L78.1068 28.8731L78.951 29.171L80.5899 29.5683L80.7886 29.6014L81.07 29.6511L81.8149 29.7008L82.6261 29.7504L83.4373 29.7339L84.2816 29.7173L84.861 29.6346L85.4569 29.5187L87.2117 29.0386L87.6587 28.8399L88.1056 28.6413L88.5195 28.4095L88.9333 28.1778L89.3141 27.8963L89.6783 27.6149L90.0259 27.3169L90.357 27.0024L90.5722 26.6879L90.8537 26.2244L90.9861 25.9926L91.1351 25.7774L91.251 25.5291L91.3834 25.2973L91.4993 25.049L91.6317 24.8172L91.731 24.5524L91.8469 24.304L92.0456 23.7909L92.1283 23.5094L92.2277 23.2446L92.3932 22.6983L92.5091 22.2347V22.1685V22.1354V22.1189H92.5256L92.5588 22.0195L92.625 21.8043L92.6912 21.3408L92.7574 20.8938L92.8071 20.4303L92.8733 19.9833L92.923 19.0397L92.9395 18.5431V18.2948V18.1624L92.9561 18.063L92.923 16.987L92.8567 15.9772L92.7243 15.0005L92.6415 14.5204L92.5588 14.0734L92.327 13.1795L92.1946 12.7325L92.0621 12.3186L91.8966 11.9048L91.731 11.524L91.3668 10.7625L90.9695 10.1169L89.579 8.3787L89.0989 7.93173L88.6519 7.56753L88.2712 7.30266L87.9235 7.10401L87.2117 6.73981L86.8475 6.57427L86.4998 6.49149L86.3509 6.44183L86.1356 6.39217L86.086 6.35906L85.9204 6.3425L85.8708 6.32595H85.8377L85.4073 6.22662L84.9934 6.17696L84.1326 6.14385H83.5863L83.0896 6.19351L82.593 6.24318L82.146 6.3425L81.6825 6.44183L81.2687 6.60738L80.8548 6.77292L80.4906 6.98813L80.0436 7.23644L79.6463 7.51787L79.2656 7.81585L78.9345 8.14693L78.6034 8.47802L78.322 8.84222L78.0405 9.20642L77.8253 9.60372V2.88263L77.8088 2.73364V2.61776L77.7922 2.36945L77.6764 1.95559L77.5108 1.57484L77.4943 1.19408L77.2128 0.862996L76.9811 0.631234L76.7493 0.482245L76.5175 0.3167L76.2858 0.217374L76.0044 0.101493L75.7395 0.05183L75.4581 0.00216675H75.2097V0.00216675Z" fill="white"/>
<path d="M97.4081 0.101471L96.8122 0.151134L96.5142 0.217352L96.2659 0.316678L95.9845 0.416005L95.7527 0.581549L95.5044 0.763647L95.3057 0.978854L95.0077 1.27683L94.8091 1.64103L94.6436 1.98867L94.5442 2.36942L94.4449 2.75018L94.4283 3.14748V29.3531H100.189V16.4076H108.301L108.433 16.391H108.599L108.731 16.3579L108.798 16.3413H108.88L109.162 16.2751L109.427 16.1924L109.675 16.0599L109.692 16.0268L109.725 16.0103L109.791 15.9771L109.923 15.9109L110.155 15.7288L110.387 15.5302L110.569 15.2819L110.751 15.0501L110.817 14.9177L110.85 14.8514L110.867 14.8183L110.9 14.7852L111.032 14.5535L111.066 14.3879L111.115 14.2555L111.181 13.9741V13.8747L111.215 13.8085L111.248 13.6595V13.5105L111.264 13.3615V11.3916H100.189V5.11746H115.072V0.101471H97.4081Z" fill="white"/>
<path d="M123.763 6.72327H123.548H123.316H123.151H122.903L121.843 6.75638L120.817 6.88881L119.79 7.05435L118.814 7.31922L118.052 7.55099L117.34 7.83241L116.662 8.1635L116.033 8.56081L115.569 8.85879L115.139 9.18987L114.592 9.66995L114.112 10.2162L113.649 10.7791L113.417 11.0771L113.235 11.4082L113.02 11.7227L112.854 12.0869L112.54 12.7987L112.291 13.3616L112.109 13.9907L111.927 14.6363L111.811 15.315L111.695 16.0103L111.646 16.7718L111.596 17.5498V18.3941V29.3531H117.34V17.6988L117.357 17.0863L117.423 16.5069L117.506 15.9772L117.638 15.4971L117.787 15.0336L118.003 14.6363L118.234 14.2721L118.532 13.9741L118.814 13.6596L119.161 13.4444L119.559 13.2291L119.972 13.0636L120.436 12.9477L120.933 12.8484L121.479 12.7987L122.075 12.7822H123.979V6.72327H123.763Z" fill="white"/>
<path d="M35.2321 0.316681H34.9175L34.6195 0.366344L34.3216 0.416007L34.0732 0.531888L33.7918 0.631215L33.5601 0.796759L33.3283 0.962303L33.1131 1.19406L32.8979 1.40927L32.7158 1.65759L32.5668 1.9059L32.4509 2.18733L32.3516 2.4522L32.3019 2.75018L32.2523 3.36269V29.5683H51.9685V24.155H38.096V0.316681H35.2321Z" fill="white"/>
<path d="M60.5574 25.1649L60.2595 25.1318L59.9449 25.0821L59.6801 25.0159L59.4152 24.9166L59.2 24.8007L58.9848 24.6682L58.8027 24.5193L58.6371 24.3206L58.5047 24.122L58.3723 23.9067L58.2895 23.7081L58.2067 23.4598L58.1571 23.228L58.1074 22.9797V22.7314L58.0743 22.5824V22.4334L58.1074 21.9368L58.2067 21.4732L58.3723 21.0097L58.6371 20.5462L59.0013 20.2151L59.498 19.9171L60.0774 19.6523L60.4085 19.5364L60.7892 19.4536L62.7095 19.0066L63.2062 18.8742L63.6697 18.7252L64.1166 18.5928L64.3153 18.5266L64.4146 18.4934L64.4312 18.4769H64.4643H64.5305L64.9113 18.3445L65.2755 18.1955L65.6065 18.063L65.7555 17.9968L65.9211 17.9472V20.0827L65.9045 20.4303L65.888 20.6124V20.8111L65.8383 21.1587L65.7886 21.5064L65.7059 21.8209L65.6231 22.1354L65.5569 22.2844L65.5238 22.3506L65.5072 22.3837V22.4334L65.441 22.5824L65.4079 22.6486L65.3913 22.6817V22.7314L65.2258 22.9962L65.0437 23.2777L64.845 23.5425L64.6464 23.8074L64.4643 23.9564L64.2987 24.122L63.918 24.4034L63.5041 24.6351L63.3882 24.6682L63.2889 24.7179L63.0903 24.8338L62.6102 24.9662L62.4778 24.9828L62.3619 25.0159L62.1301 25.0821L61.8652 25.0987L61.6004 25.1318H61.4514L61.3189 25.1483L61.0541 25.1649H60.5574ZM61.021 6.22662L60.1932 6.29284L59.3821 6.39217L58.6537 6.57427L58.2729 6.65704L57.9253 6.77292L57.2797 7.03779L56.6672 7.33577L56.1209 7.69997L55.558 8.14694L55.0779 8.5608L54.6641 9.04087L54.2833 9.53751L53.9688 10.0838L53.7039 10.6301L53.5053 11.2261L53.3563 11.8386L53.2569 12.4842H58.7861L58.8689 12.2359L58.9848 12.0372L59.1172 11.8386L59.2828 11.673L59.647 11.3916L59.8456 11.2592L60.0774 11.1929L60.5409 11.0109L61.0375 10.9115L61.5673 10.8453L62.1467 10.8288L62.6764 10.8453L63.2558 10.9115L63.8518 11.0274L64.4974 11.2095L64.7954 11.2923L65.0437 11.4413L65.2423 11.6068L65.4244 11.822L65.5403 12.0372L65.6562 12.3021L65.7059 12.567L65.739 12.8981L65.7224 12.9312V12.9808V13.0802L65.6893 13.1629L65.6728 13.2623L65.59 13.4443L65.5569 13.4775L65.5403 13.494V13.5271L65.5072 13.6264L65.3748 13.792L65.2258 13.9741L65.0437 14.1065L64.9444 14.1727L64.8947 14.2059L64.8616 14.2555L64.7292 14.3052L64.6133 14.3714L64.3319 14.4873L64.0339 14.5866L63.8683 14.6363L63.7193 14.7025L63.5372 14.7356L63.3717 14.7853L62.9909 14.8846L62.5771 14.9508L62.3619 14.9839L62.1632 15.0336L61.4514 15.1163L60.8554 15.2322L60.5574 15.2653L60.3091 15.315L60.0774 15.3316L59.8787 15.3481L58.8358 15.5302L57.8756 15.7951L57.3955 15.9275L56.9486 16.1096L56.1209 16.5069L55.7236 16.689L55.3594 16.9042L54.6806 17.3843L54.4323 17.5664L54.2171 17.7816L53.9853 18.0134L53.8032 18.2782L53.439 18.808L53.29 19.106L53.1742 19.437L53.0417 19.7516L52.9424 20.0992L52.8596 20.4469L52.81 20.8276L52.7106 21.6222L52.6941 22.4996V23.0459L52.7438 23.5922L52.7934 24.1054L52.8927 24.602L52.9921 25.0656L53.1411 25.5125L53.29 25.9264L53.4887 26.3237L53.6046 26.5554L53.7536 26.7872L53.9026 27.0024L54.0847 27.2342L54.2502 27.4328L54.4489 27.6315L54.8793 27.9957L55.4256 28.3599L56.0215 28.7075L56.634 28.9889L57.2797 29.2373L57.9253 29.4194L58.604 29.5518L59.2993 29.618L60.0443 29.6511L60.8223 29.6346L61.65 29.5849L62.5274 29.5187L62.9909 29.469L63.4876 29.4359L63.9511 29.3697L64.4312 29.2869L64.6464 29.2207L64.8781 29.171L65.3582 29.0386L65.8052 28.8731L66.2687 28.691L66.6991 28.4758L67.1461 28.2606L67.4606 28.0619L67.7752 27.8632L68.0732 27.648L68.3877 27.4163L68.6526 27.1514L68.785 27.0024L68.8512 26.9362L68.8843 26.9031L68.9009 26.8865H68.934L69.1989 26.6051L69.4637 26.3071L69.7452 25.9264L70.0266 25.5125L70.0431 25.4463L70.0762 25.3966L70.1425 25.2973L70.2749 25.0821L70.3742 24.8007L70.4901 24.5193L70.5894 24.2213V24.1716L70.606 24.1385L70.6391 24.0723L70.7053 23.9233L70.8709 23.2777L70.9371 22.9466L70.9702 22.7645V22.7148L70.9867 22.6817L71.0198 22.6155L71.0861 22.0361V21.8705L71.1026 21.7381L71.1357 21.4567L71.1688 20.8442L71.1854 20.2151V12.6166L71.1688 12.12L71.1192 11.6565L71.0364 11.2095L70.9536 10.8122L70.8046 10.3983L70.6556 10.0176L70.4735 9.65339L70.2583 9.3223L69.9604 8.89188L69.6127 8.52769L69.2154 8.16349L68.8016 7.86551L68.487 7.6503L68.1559 7.4682L67.4772 7.13712L67.0964 6.97157L66.6991 6.85569L66.2853 6.73981L65.8714 6.65704L64.9444 6.45839L63.9842 6.3425L63.4545 6.29284L62.9247 6.27629L61.8321 6.25973L61.021 6.22662Z" fill="white"/>
<path d="M128.977 6.77292H126.064V29.2372H131.758V9.65339L131.742 9.35541L131.709 9.07398L131.642 8.80911L131.56 8.56079L131.444 8.31248L131.295 8.06416L131.129 7.8324L130.947 7.61719L130.715 7.41854L130.5 7.253L130.268 7.10401L130.037 6.98813L129.755 6.8888L129.507 6.83914L129.242 6.77292H128.977Z" fill="white"/>
<path d="M128.928 0.101471L128.348 0.151134L128.083 0.217352L127.818 0.316678L127.57 0.432559L127.338 0.581549L127.107 0.763647L126.908 0.9623L126.709 1.1444L126.577 1.37616L126.444 1.59137L126.345 1.82313L126.279 2.02178L126.13 2.43564L126.064 2.88261V3.31303L126.146 3.77655L126.246 3.99176L126.312 4.19041L126.411 4.40562L126.511 4.57116L126.626 4.7367L126.908 5.08435L127.107 5.283L127.338 5.4651L127.57 5.61409L127.818 5.72997L128.083 5.82929L128.348 5.89551L128.63 5.92862L128.928 5.94518L129.043 5.92862H129.192L129.325 5.91207L129.358 5.89551H129.391H129.474L129.523 5.8624L129.557 5.84585H129.59L129.722 5.82929L129.987 5.72997L130.219 5.61409L130.467 5.4651L130.566 5.36577L130.682 5.283L130.782 5.16712L130.848 5.11746L130.864 5.1009L130.881 5.08435H130.914L131.03 4.90225L131.179 4.7367L131.245 4.63738L131.311 4.57116L131.427 4.40562L131.56 4.07453L131.609 3.89243L131.659 3.72689L131.725 3.37924L131.742 3.19714V3.09782L131.758 3.01505L131.742 2.78328L131.709 2.56808L131.676 2.35287L131.626 2.13766L131.46 1.75691L131.245 1.39271L131.08 1.16095L130.914 0.9623L130.682 0.763647L130.467 0.581549L130.219 0.432559L129.987 0.316678L129.722 0.217352L129.474 0.151134L129.192 0.101471H128.928Z" fill="white"/>
</svg>
