<?xml version="1.0" encoding="UTF-8"?>
<svg width="749px" height="339px" viewBox="0 0 749 339" version="1.1" xmlns="http://www.w3.org/2000/svg" xmlns:xlink="http://www.w3.org/1999/xlink">
    <title>teoh-logo-colour</title>
    <g id="Page-1" stroke="none" stroke-width="1" fill="none" fill-rule="evenodd">
        <g id="teoh-logo-colour" fill="#FFFFFF" fill-rule="nonzero">
            <path d="M15.2672,335.546 C10.9051,333.183 7.6336,329.912 5.2708,325.731 C2.9081,321.55 1.6358,317.006 1.6358,311.735 C1.6358,306.463 2.9081,301.919 5.2708,297.738 C7.8154,293.558 11.0869,290.286 15.4489,287.923 C19.811,285.56 24.5365,284.469 29.8073,284.469 C34.1694,284.469 37.9862,285.196 41.6212,286.832 C45.2563,288.286 48.1643,290.468 50.7088,293.376 L44.3475,299.374 C40.5307,295.194 35.8052,293.194 30.3526,293.194 C26.7176,293.194 23.446,293.921 20.7197,295.557 C17.8117,297.193 15.6307,299.374 13.9949,302.101 C12.3592,305.009 11.6321,308.099 11.6321,311.735 C11.6321,315.37 12.3592,318.46 13.9949,321.368 C15.6307,324.277 17.8117,326.458 20.7197,327.912 C23.6278,329.548 26.8993,330.275 30.3526,330.275 C35.9869,330.275 40.5307,328.094 44.3475,323.913 L50.7088,329.912 C48.1643,332.82 45.2563,335.001 41.6212,336.455 C37.9862,337.909 34.1694,338.818 29.8073,338.818 C24.3548,339 19.4475,337.909 15.2672,335.546 Z" id="Path"></path>
            <path d="M162.85,326.094 L136.678,326.094 L131.407,338.273 L121.41,338.273 L145.038,285.196 L154.671,285.196 L178.48,338.273 L168.302,338.273 L162.85,326.094 Z M159.76,318.278 L149.764,295.194 L139.949,318.278 L159.76,318.278 Z" id="Shape"></path>
            <path d="M288.622,287.559 C292.076,289.013 294.62,291.195 296.438,294.103 C298.255,297.011 299.164,300.283 299.164,304.1 C299.164,307.917 298.255,311.371 296.438,314.098 C294.62,317.006 292.076,319.187 288.622,320.641 C285.169,322.095 281.352,322.823 276.627,322.823 L264.813,322.823 L264.813,338.091 L254.998,338.091 L254.998,285.014 L276.627,285.014 C281.352,285.196 285.351,286.105 288.622,287.559 Z M285.896,311.916 C288.077,310.099 289.167,307.554 289.167,304.1 C289.167,300.647 288.077,298.102 285.896,296.284 C283.715,294.466 280.443,293.558 276.263,293.558 L264.813,293.558 L264.813,314.643 L276.263,314.643 C280.625,314.643 283.715,313.734 285.896,311.916 Z" id="Shape"></path>
            <polygon id="Path" points="378.953 285.196 388.768 285.196 388.768 338.273 378.953 338.273"></polygon>
            <polygon id="Path" points="483.46 293.558 466.012 293.558 466.012 285.196 510.723 285.196 510.723 293.558 493.275 293.558 493.275 338.273 483.46 338.273"></polygon>
            <path d="M619.592,326.094 L593.239,326.094 L587.968,338.273 L577.971,338.273 L601.599,285.196 L611.232,285.196 L635.041,338.273 L624.863,338.273 L619.592,326.094 Z M616.321,318.278 L606.325,295.194 L596.51,318.278 L616.321,318.278 Z" id="Shape"></path>
            <polygon id="Path" points="711.741 285.196 721.556 285.196 721.556 329.912 749 329.912 749 338.273 711.741 338.273"></polygon>
            <polygon id="Path" points="0.3635 39.6257 57.2519 39.6257 57.2519 201.037 93.602 201.037 93.602 39.6257 150.854 39.6257 150.854 3.8171 0 3.8171"></polygon>
            <polygon id="Path" points="227.008 124.876 297.528 124.876 308.433 89.249 227.008 89.249 227.008 39.444 313.886 39.444 324.791 3.8171 190.658 3.8171 190.658 201.037 315.703 201.037 326.608 165.228 227.008 165.228"></polygon>
            <path d="M455.834,1.42108547e-14 C400.218,1.42108547e-14 354.962,45.9877 354.962,102.518 C354.962,159.775 399.309,204.672 455.834,204.672 C511.632,204.672 557.07,158.866 557.07,102.518 C556.888,45.9877 511.632,1.42108547e-14 455.834,1.42108547e-14 Z M520.356,102.518 C520.356,138.145 490.73,168.137 455.652,168.137 C420.211,168.137 391.312,138.69 391.312,102.518 C391.312,65.437 419.665,36.3539 455.652,36.3539 C492.003,36.3539 520.356,65.437 520.356,102.518 Z" id="Shape"></path>
            <polygon id="Path" points="712.831 3.8171 712.831 89.249 634.133 89.249 634.133 3.8171 597.782 3.8171 597.782 201.037 634.133 201.037 634.133 125.057 712.831 125.057 712.831 201.037 749 201.037 749 3.8171"></polygon>
            <polygon id="Path" points="749 236.482 0 236.482 0 250.66 749 250.66"></polygon>
        </g>
    </g>
</svg>