<svg width="47" height="42" viewBox="0 0 47 42" fill="none" xmlns="http://www.w3.org/2000/svg">
<path d="M46.3875 21.0047C46.3875 17.9317 42.5392 15.0195 36.6391 13.2136C38.0007 7.20003 37.3955 2.41567 34.7291 0.88392C34.1145 0.52462 33.3959 0.354426 32.6112 0.354426V2.46295C33.0461 2.46295 33.3959 2.54804 33.6891 2.70878C34.975 3.44629 35.5328 6.2545 35.0979 9.86641C34.9939 10.7552 34.8237 11.6913 34.6157 12.6463C32.7624 12.1924 30.739 11.8426 28.6116 11.6156C27.3351 9.86641 26.0114 8.27793 24.6782 6.88801C27.7606 4.02306 30.6539 2.45349 32.6206 2.45349V0.344971C30.0204 0.344971 26.6165 2.1982 23.1748 5.41299C19.7331 2.21711 16.3292 0.382792 13.729 0.382792V2.49131C15.6863 2.49131 18.589 4.05143 21.6714 6.89746C20.3477 8.28738 19.024 9.86641 17.7664 11.6156C15.6295 11.8426 13.6061 12.1924 11.7529 12.6557C11.5354 11.7102 11.3747 10.793 11.2612 9.91369C10.8168 6.30178 11.3652 3.49357 12.6417 2.7466C12.9253 2.57641 13.2941 2.50077 13.729 2.50077V0.392247C12.9348 0.392247 12.2162 0.562441 11.5921 0.921741C8.93521 2.45349 8.33953 7.22839 9.71054 13.223C3.82938 15.0384 0 17.9412 0 21.0047C0 24.0777 3.84829 26.9899 9.74836 28.7958C8.38681 34.8094 8.99194 39.5937 11.6583 41.1255C12.2729 41.4848 12.9915 41.655 13.7858 41.655C16.386 41.655 19.7898 39.8017 23.2316 36.587C26.6733 39.7828 30.0772 41.6171 32.6773 41.6171C33.4716 41.6171 34.1902 41.447 34.8142 41.0877C37.4712 39.5559 38.0668 34.781 36.6958 28.7864C42.5581 26.9804 46.3875 24.0682 46.3875 21.0047ZM34.0767 14.698C33.7269 15.9178 33.2919 17.1753 32.8003 18.4329C32.4126 17.6764 32.006 16.92 31.5616 16.1636C31.1267 15.4072 30.6634 14.6697 30.2001 13.9511C31.5427 14.1496 32.8381 14.3955 34.0767 14.698ZM29.7462 24.7679C29.0087 26.0443 28.2523 27.2546 27.4675 28.3798C26.0587 28.5027 24.6309 28.5689 23.1937 28.5689C21.766 28.5689 20.3382 28.5027 18.9389 28.3892C18.1541 27.2641 17.3882 26.0633 16.6507 24.7963C15.9321 23.5576 15.2797 22.3001 14.684 21.0331C15.2702 19.7661 15.9321 18.4991 16.6412 17.2604C17.3788 15.984 18.1352 14.7737 18.92 13.6485C20.3288 13.5256 21.7565 13.4594 23.1937 13.4594C24.6215 13.4594 26.0492 13.5256 27.4486 13.6391C28.2334 14.7642 28.9993 15.965 29.7368 17.2321C30.4554 18.4707 31.1078 19.7282 31.7035 20.9952C31.1078 22.2622 30.4554 23.5292 29.7462 24.7679ZM32.8003 23.5387C33.3108 24.8057 33.7458 26.0727 34.1051 27.3019C32.8665 27.6045 31.5616 27.8598 30.2095 28.0583C30.6728 27.3303 31.1361 26.5833 31.5711 25.8174C32.006 25.061 32.4126 24.2951 32.8003 23.5387ZM23.2126 33.6275C22.3333 32.7198 21.454 31.708 20.5841 30.6018C21.4351 30.6396 22.3049 30.668 23.1843 30.668C24.0731 30.668 24.9524 30.6491 25.8128 30.6018C24.9619 31.708 24.0825 32.7198 23.2126 33.6275ZM16.1779 28.0583C14.8353 27.8598 13.5399 27.6139 12.3013 27.3114C12.6511 26.0916 13.0861 24.8341 13.5777 23.5765C13.9654 24.3329 14.372 25.0894 14.8164 25.8458C15.2608 26.6022 15.7146 27.3397 16.1779 28.0583ZM23.1654 8.38194C24.0447 9.28964 24.924 10.3014 25.7939 11.4076C24.943 11.3698 24.0731 11.3414 23.1937 11.3414C22.3049 11.3414 21.4256 11.3603 20.5652 11.4076C21.4161 10.3014 22.2955 9.28964 23.1654 8.38194ZM16.1685 13.9511C15.7052 14.6791 15.2419 15.4261 14.8069 16.192C14.372 16.9484 13.9654 17.7048 13.5777 18.4612C13.0672 17.1942 12.6322 15.9272 12.2729 14.698C13.5116 14.4049 14.8164 14.1496 16.1685 13.9511ZM7.61148 25.7891C4.26432 24.3613 2.09907 22.4892 2.09907 21.0047C2.09907 19.5202 4.26432 17.6386 7.61148 16.2203C8.42463 15.8705 9.31342 15.5585 10.2306 15.2654C10.7695 17.1186 11.4787 19.0475 12.358 21.0236C11.4881 22.9903 10.7884 24.9097 10.2589 26.7535C9.32288 26.4604 8.43408 26.1389 7.61148 25.7891ZM12.6984 39.3006C11.4125 38.5631 10.8546 35.7549 11.2896 32.143C11.3936 31.2542 11.5638 30.3181 11.7718 29.3631C13.625 29.817 15.6484 30.1668 17.7759 30.3938C19.0523 32.143 20.3761 33.7315 21.7093 35.1214C18.6268 37.9863 15.7335 39.5559 13.7668 39.5559C13.3414 39.5464 12.9821 39.4613 12.6984 39.3006ZM35.1263 32.0957C35.5707 35.7076 35.0222 38.5158 33.7458 39.2628C33.4621 39.433 33.0934 39.5086 32.6584 39.5086C30.7012 39.5086 27.7984 37.9485 24.716 35.1025C26.0398 33.7126 27.3635 32.1335 28.621 30.3843C30.7579 30.1574 32.7814 29.8075 34.6346 29.3442C34.8521 30.2992 35.0223 31.2164 35.1263 32.0957ZM38.7665 25.7891C37.9534 26.1389 37.0646 26.4509 36.1474 26.744C35.6085 24.8908 34.8993 22.9619 34.02 20.9858C34.8899 19.0191 35.5896 17.0997 36.1191 15.2559C37.0551 15.549 37.9439 15.8705 38.776 16.2203C42.1231 17.6481 44.2884 19.5202 44.2884 21.0047C44.2789 22.4892 42.1137 24.3708 38.7665 25.7891Z" fill="white"/>
<path d="M23.1843 25.3257C25.5708 25.3257 27.5054 23.3911 27.5054 21.0046C27.5054 18.6182 25.5708 16.6836 23.1843 16.6836C20.7979 16.6836 18.8633 18.6182 18.8633 21.0046C18.8633 23.3911 20.7979 25.3257 23.1843 25.3257Z" fill="white"/>
</svg>
