<svg width="31" height="50" viewBox="0 0 31 50" fill="none" xmlns="http://www.w3.org/2000/svg">
<g clip-path="url(#clip0_15_3474)">
<path d="M15.4145 1.2981V18.7193C15.4145 18.7941 15.3398 18.8689 15.265 18.8689C14.7416 19.0932 14.293 19.3175 13.7696 19.5418C13.0967 19.8409 12.349 20.1399 11.6761 20.5138L9.20869 21.6353L7.18992 22.5326L4.72254 23.6541C4.04961 23.9532 3.37669 24.2522 2.629 24.6261C2.10561 24.8504 1.50746 25.1495 0.984073 25.3738C0.909304 25.3738 0.909304 25.4486 0.834535 25.3738H0.759766C0.984073 24.9999 1.20838 24.7009 1.43269 24.327C2.629 22.3083 3.90007 20.2895 5.09638 18.2707C6.36746 16.1024 7.7133 13.9341 8.98438 11.7658C10.1807 9.74702 11.377 7.72825 12.5733 5.78425C13.4705 4.28886 14.3678 2.86825 15.1902 1.37286C15.3398 1.37286 15.3398 1.2981 15.4145 1.2981C15.4145 1.2981 15.3398 1.2981 15.4145 1.2981Z" fill="white"/>
<path d="M29.9198 25.3739C28.7983 26.1216 27.602 26.7945 26.4805 27.4674C22.8168 29.6357 19.2278 31.7293 15.5642 33.8976C15.4894 33.8976 15.4894 33.9723 15.4146 33.9723C15.3398 33.9723 15.3398 33.8976 15.3398 33.8976V33.6733V19.0933V18.869C15.3398 18.7942 15.4146 18.7942 15.4894 18.7942C15.7885 18.9437 16.0875 19.0933 16.4614 19.2428C17.3586 19.6914 18.3306 20.0653 19.2278 20.5139C20.0503 20.8877 20.798 21.2616 21.6205 21.5607C22.4429 21.9345 23.1906 22.3083 24.0131 22.6822C24.686 22.9813 25.4337 23.2803 26.1066 23.6542C26.7795 23.9533 27.5272 24.2523 28.2002 24.6262C28.7235 24.8505 29.2469 25.1496 29.8451 25.3739C29.8451 25.2991 29.8451 25.3739 29.9198 25.3739Z" fill="white"/>
<path d="M15.414 48.6271C15.414 48.6271 15.3392 48.6271 15.414 48.6271C15.3392 48.6271 15.3392 48.6271 15.2644 48.5523C13.7691 46.4588 12.3484 44.44 10.8531 42.3465L6.36691 36.0659C4.94629 34.0471 3.45091 32.0283 2.03029 29.9348L0.908754 28.3646C0.908754 28.2899 0.833984 28.2899 0.833984 28.2151C0.908754 28.2151 0.908754 28.2899 0.983523 28.2899C3.00229 29.4862 5.09583 30.6825 7.1146 31.8788C9.43245 33.2994 11.8251 34.6452 14.1429 36.0659C14.5168 36.2902 14.9654 36.5145 15.3392 36.7388C15.414 36.7388 15.414 36.8136 15.414 36.8883V48.6271Z" fill="white"/>
<path d="M0.833984 25.3738C0.833984 25.3738 0.908754 25.3738 0.833984 25.3738C0.908754 25.3738 0.908754 25.3738 0.833984 25.3738C0.833984 25.4485 0.833984 25.4485 0.833984 25.3738Z" fill="white"/>
<path d="M0.908203 25.4485C0.908203 25.3737 0.908203 25.3737 0.908203 25.4485C1.6559 25.0746 2.40359 24.7755 3.15128 24.4017L6.06728 23.0559C6.81497 22.682 7.56267 22.3829 8.31036 22.0091C9.35713 21.4857 10.4787 21.0371 11.5254 20.5137C12.2731 20.2146 13.0208 19.8408 13.7685 19.5417C14.2919 19.3174 14.8153 19.0931 15.3387 18.794C15.4134 18.794 15.4134 18.7192 15.4882 18.7192V33.9722C15.4134 34.0469 15.4134 33.9722 15.3387 33.9722C15.1144 33.8226 14.8901 33.7479 14.7405 33.5983L1.05774 25.5232C0.982972 25.4485 0.908203 25.4485 0.908203 25.4485ZM29.8439 28.2149C29.8439 28.2897 29.8439 28.2897 29.7691 28.3645C25.4325 34.4955 21.0959 40.5519 16.7593 46.6829C16.3107 47.3559 15.8621 47.954 15.4134 48.6269V48.5522V48.4026V36.9629V36.7386C16.3854 36.1405 17.3574 35.5423 18.3294 35.0189L29.7691 28.2897C29.7691 28.2149 29.8439 28.2149 29.8439 28.2149Z" fill="white"/>
<path d="M15.4141 18.794V18.6445V1.52234V1.3728L29.7698 25.1494C29.8445 25.2242 29.9193 25.299 29.9193 25.3737C29.6202 25.2242 29.3211 25.0746 28.9473 24.9251C28.5734 24.7756 28.1996 24.5513 27.8258 24.4017C27.6014 24.327 27.3771 24.1774 27.0781 24.1026C26.7042 23.9531 26.2556 23.7288 25.8818 23.5793C25.6574 23.5045 25.4331 23.355 25.2088 23.2802L23.6387 22.6073C23.3396 22.4577 23.1153 22.383 22.8162 22.2334C22.4424 22.0839 22.0685 21.8596 21.6947 21.71C21.4704 21.6353 21.2461 21.4857 21.0218 21.411L19.4516 20.738C19.1525 20.5885 18.9282 20.5137 18.6291 20.3642C18.2553 20.2146 17.8814 19.9903 17.5076 19.8408C17.2833 19.6913 16.9842 19.6165 16.7599 19.467L15.4141 18.794Z" fill="white"/>
</g>
<defs>
<clipPath id="clip0_15_3474">
<rect width="29.9077" height="48.6" fill="white" transform="translate(0.386719 0.699951)"/>
</clipPath>
</defs>
</svg>
