<svg width="44" height="26" viewBox="0 0 44 26" fill="none" xmlns="http://www.w3.org/2000/svg">
<path d="M12.624 9.4537C12.624 9.98709 12.6816 10.4196 12.7825 10.7367C12.8979 11.0539 13.042 11.3999 13.2438 11.7747C13.3159 11.89 13.3448 12.0053 13.3448 12.1062C13.3448 12.2504 13.2583 12.3946 13.0708 12.5387L12.1626 13.1442C12.0329 13.2307 11.9032 13.2739 11.7878 13.2739C11.6437 13.2739 11.4995 13.2019 11.3553 13.0721C11.1535 12.8559 10.9805 12.6252 10.8364 12.3946C10.6922 12.1495 10.548 11.8756 10.3895 11.544C9.26502 12.8703 7.85225 13.5334 6.15116 13.5334C4.94022 13.5334 3.97434 13.1874 3.26796 12.4955C2.56157 11.8035 2.20117 10.8809 2.20117 9.7276C2.20117 8.50224 2.63365 7.50754 3.51303 6.7579C4.39241 6.00827 5.5601 5.63345 7.04495 5.63345C7.5351 5.63345 8.03966 5.6767 8.57305 5.74878C9.10644 5.82086 9.65425 5.93619 10.2309 6.06593V5.01356C10.2309 3.91795 10.0002 3.1539 9.55334 2.707C9.09203 2.26011 8.31356 2.04387 7.20353 2.04387C6.69897 2.04387 6.17999 2.10153 5.6466 2.23127C5.11321 2.36102 4.59423 2.51959 4.08967 2.72142C3.85901 2.82233 3.68602 2.87999 3.58511 2.90883C3.4842 2.93766 3.41212 2.95207 3.35445 2.95207C3.15263 2.95207 3.05172 2.80791 3.05172 2.50518V1.79879C3.05172 1.56814 3.08055 1.39514 3.15263 1.29423C3.22471 1.19332 3.35445 1.09241 3.55628 0.991496C4.06084 0.732008 4.66631 0.515768 5.3727 0.342775C6.07908 0.155367 6.82871 0.0688711 7.62159 0.0688711C9.3371 0.0688711 10.5913 0.458103 11.3986 1.23657C12.1915 2.01503 12.5951 3.19715 12.5951 4.78291V9.4537H12.624ZM6.77105 11.6449C7.24678 11.6449 7.73692 11.5584 8.2559 11.3854C8.77488 11.2125 9.23619 10.8953 9.62542 10.4628C9.85608 10.1889 10.0291 9.88618 10.1156 9.54019C10.2021 9.19421 10.2597 8.77614 10.2597 8.286V7.68053C9.84166 7.57962 9.39476 7.49312 8.93345 7.43546C8.47214 7.37779 8.02524 7.34896 7.57835 7.34896C6.61247 7.34896 5.90609 7.53637 5.43036 7.9256C4.95463 8.31483 4.72397 8.86264 4.72397 9.58344C4.72397 10.261 4.89697 10.7656 5.25737 11.1115C5.60335 11.4719 6.10791 11.6449 6.77105 11.6449ZM18.3471 13.2019C18.0876 13.2019 17.9146 13.1586 17.7993 13.0577C17.684 12.9712 17.5831 12.7694 17.4966 12.4955L14.1088 1.3519C14.0223 1.06358 13.9791 0.876168 13.9791 0.775256C13.9791 0.5446 14.0944 0.414855 14.325 0.414855H15.7378C16.0117 0.414855 16.1991 0.458104 16.3 0.559016C16.4154 0.645512 16.5019 0.847336 16.5884 1.12124L19.0102 10.6646L21.2591 1.12124C21.3312 0.83292 21.4177 0.645512 21.533 0.559016C21.6484 0.47252 21.8502 0.414855 22.1097 0.414855H23.263C23.5369 0.414855 23.7243 0.458104 23.8396 0.559016C23.9549 0.645512 24.0559 0.847336 24.1135 1.12124L26.3912 10.78L28.8852 1.12124C28.9717 0.83292 29.0726 0.645512 29.1735 0.559016C29.2889 0.47252 29.4763 0.414855 29.7358 0.414855H31.0765C31.3071 0.414855 31.4369 0.530184 31.4369 0.775256C31.4369 0.847336 31.4224 0.919416 31.408 1.00591C31.3936 1.09241 31.3648 1.20774 31.3071 1.36631L27.8328 12.5099C27.7464 12.7982 27.6454 12.9856 27.5301 13.0721C27.4148 13.1586 27.2274 13.2163 26.9823 13.2163H25.7425C25.4686 13.2163 25.2812 13.173 25.1659 13.0721C25.0506 12.9712 24.9496 12.7838 24.892 12.4955L22.6575 3.19715L20.4374 12.4811C20.3654 12.7694 20.2789 12.9568 20.1635 13.0577C20.0482 13.1586 19.8464 13.2019 19.5869 13.2019H18.3471ZM36.8717 13.5911C36.1221 13.5911 35.3724 13.5046 34.6516 13.3316C33.9308 13.1586 33.3686 12.9712 32.9938 12.755C32.7631 12.6252 32.6046 12.4811 32.5469 12.3513C32.4892 12.2216 32.4604 12.0774 32.4604 11.9477V11.2125C32.4604 10.9097 32.5757 10.7656 32.792 10.7656C32.8785 10.7656 32.965 10.78 33.0514 10.8088C33.1379 10.8376 33.2677 10.8953 33.4118 10.953C33.902 11.1692 34.4354 11.3422 34.9976 11.4575C35.5742 11.5729 36.1365 11.6305 36.7131 11.6305C37.6213 11.6305 38.3277 11.4719 38.8179 11.1548C39.308 10.8376 39.5675 10.3763 39.5675 9.78527C39.5675 9.38162 39.4377 9.05005 39.1783 8.77615C38.9188 8.50224 38.4286 8.25717 37.7222 8.02651L35.6319 7.37779C34.5795 7.04622 33.8011 6.55608 33.3254 5.90736C32.8496 5.27305 32.6045 4.56667 32.6045 3.81704C32.6045 3.21156 32.7343 2.67817 32.9938 2.21686C33.2533 1.75555 33.5993 1.3519 34.0317 1.03474C34.4642 0.703176 34.9544 0.458104 35.531 0.285111C36.1076 0.112119 36.7131 0.0400391 37.3474 0.0400391C37.6646 0.0400391 37.9961 0.0544551 38.3133 0.0977031C38.6449 0.140951 38.9476 0.198615 39.2503 0.256279C39.5387 0.328359 39.8126 0.400439 40.072 0.486936C40.3315 0.573432 40.5334 0.659928 40.6775 0.746424C40.8793 0.861752 41.0235 0.97708 41.11 1.10682C41.1965 1.22215 41.2397 1.38073 41.2397 1.58255V2.26011C41.2397 2.56284 41.1244 2.72142 40.9082 2.72142C40.7928 2.72142 40.6054 2.66375 40.3604 2.54843C39.5387 2.17361 38.616 1.9862 37.5925 1.9862C36.7708 1.9862 36.1221 2.11595 35.6752 2.38985C35.2283 2.66375 34.9976 3.08182 34.9976 3.67288C34.9976 4.07652 35.1418 4.42251 35.4301 4.69641C35.7184 4.97032 36.2518 5.24422 37.0159 5.48929L39.0629 6.13801C40.1009 6.46958 40.8505 6.9309 41.2974 7.52195C41.7443 8.11301 41.9605 8.79056 41.9605 9.54019C41.9605 10.1601 41.8308 10.7223 41.5857 11.2125C41.3262 11.7026 40.9803 12.1351 40.5334 12.4811C40.0865 12.8415 39.5531 13.101 38.9332 13.2884C38.2845 13.4902 37.6069 13.5911 36.8717 13.5911Z" fill="white"/>
<path fill-rule="evenodd" clip-rule="evenodd" d="M39.5956 20.5973C34.8527 24.1004 27.9618 25.96 22.0368 25.96C13.7332 25.96 6.25131 22.8894 0.600227 17.7862C0.15333 17.3825 0.556979 16.8347 1.09037 17.1518C7.20276 20.6982 14.7423 22.8462 22.5414 22.8462C27.8033 22.8462 33.5841 21.7506 38.9036 19.5017C39.6965 19.1413 40.374 20.0206 39.5956 20.5973Z" fill="white"/>
<path fill-rule="evenodd" clip-rule="evenodd" d="M41.5702 18.3483C40.9648 17.5699 37.5626 17.9735 36.0201 18.1609C35.5588 18.2186 35.4867 17.8149 35.9047 17.5122C38.6149 15.6093 43.0695 16.1571 43.5885 16.7914C44.1075 17.4401 43.4443 21.8947 40.9071 24.0282C40.5179 24.3598 40.143 24.1868 40.316 23.7543C40.8927 22.3271 42.1757 19.1124 41.5702 18.3483Z" fill="white"/>
</svg>
