<svg width="39" height="40" viewBox="0 0 39 40" fill="none" xmlns="http://www.w3.org/2000/svg">
<path d="M19.2772 0.317208C17.6719 0.324564 16.1388 0.461518 14.7895 0.7004C10.8151 1.40233 10.0935 2.87205 10.0935 5.58206V9.16144H19.4852V10.3544H6.56914C3.83951 10.3544 1.44965 11.9951 0.702177 15.116C-0.160179 18.6932 -0.198358 20.9255 0.702177 24.6607C1.36979 27.4411 2.96385 29.4223 5.69347 29.4223H8.92258V25.1315C8.92258 22.0316 11.6046 19.2971 14.7895 19.2971H24.1697C26.7813 19.2971 28.8657 17.1472 28.8657 14.5247V5.58241C28.8657 3.03703 26.7186 1.12492 24.17 0.7004C22.5567 0.431745 20.8828 0.309852 19.2772 0.317208ZM14.1983 3.19605C15.1685 3.19605 15.9605 4.00096 15.9605 4.99116C15.9605 5.97752 15.1685 6.77507 14.1986 6.77507C13.2249 6.77507 12.4361 5.97752 12.4361 4.99116C12.4361 4.00096 13.2249 3.19605 14.1983 3.19605Z" fill="white"/>
<path d="M30.0372 10.3545V14.5248C30.0372 17.7581 27.296 20.4793 24.1703 20.4793H14.7898C12.2202 20.4793 10.0938 22.6786 10.0938 25.2517V34.1947C10.0938 36.7397 12.3071 38.2368 14.7898 38.9671C17.7625 39.841 20.6133 39.9989 24.1699 38.9671C26.5346 38.2823 28.8659 36.9047 28.8659 34.1947V30.6153H19.4854V29.4223H33.5616C36.2912 29.4223 37.3084 27.5182 38.2576 24.6608C39.238 21.7189 39.1963 18.8898 38.2576 15.116C37.583 12.399 36.2947 10.3545 33.5616 10.3545H30.0372ZM24.7612 33.0013C25.7349 33.0013 26.5237 33.7992 26.5237 34.7856C26.5237 35.7758 25.7349 36.5807 24.7612 36.5807C23.7909 36.5807 22.9993 35.7758 22.9993 34.7856C22.9993 33.7992 23.7909 33.0013 24.7612 33.0013Z" fill="white"/>
</svg>
