<svg width="41" height="40" viewBox="0 0 41 40" fill="none" xmlns="http://www.w3.org/2000/svg">
<g clip-path="url(#clip0_15_3495)">
<path d="M40.0736 19.5173L38.421 18.4943C38.4071 18.3333 38.3913 18.1727 38.374 18.0129L39.7942 16.6882C39.9386 16.5535 40.0033 16.3542 39.9642 16.1612C39.9262 15.9675 39.7904 15.8081 39.6057 15.7392L37.7902 15.0603C37.7447 14.9031 37.6969 14.747 37.6481 14.5917L38.7805 13.0188C38.896 12.8589 38.9197 12.6509 38.8445 12.4685C38.7693 12.2868 38.6049 12.1567 38.4104 12.1247L36.496 11.8133C36.4215 11.6681 36.3441 11.5252 36.2658 11.3834L37.0703 9.61754C37.1527 9.43775 37.1358 9.22863 37.026 9.0654C36.9165 8.90141 36.7311 8.8055 36.5332 8.81302L34.5902 8.88072C34.4898 8.7551 34.3875 8.6306 34.2833 8.50837L34.7298 6.61574C34.7749 6.42354 34.7181 6.22232 34.5782 6.08278C34.4394 5.94362 34.2378 5.88607 34.0456 5.93121L32.1533 6.37728C32.0307 6.27347 31.9062 6.17079 31.7802 6.07037L31.8483 4.12734C31.8558 3.93063 31.7599 3.7437 31.5959 3.63463C31.4316 3.5248 31.2236 3.50825 31.0442 3.58987L29.2787 4.39476C29.1361 4.31653 28.9932 4.23905 28.8488 4.1642L28.5366 2.24939C28.505 2.05531 28.3749 1.89057 28.1928 1.81535C28.0112 1.73975 27.8028 1.7642 27.6429 1.87929L26.0689 3.01178C25.9139 2.96251 25.7582 2.91512 25.601 2.86998L24.9221 1.05409C24.8533 0.869035 24.6938 0.733257 24.5001 0.694893C24.3068 0.656905 24.1078 0.721221 23.9735 0.864898L22.6488 2.28625C22.489 2.26857 22.328 2.2524 22.1674 2.23923L21.1444 0.586195C21.0409 0.418822 20.8578 0.316895 20.6607 0.316895C20.4636 0.316895 20.2804 0.418822 20.1774 0.586195L19.1543 2.23923C18.9934 2.2524 18.8324 2.26857 18.6725 2.28625L17.3475 0.864898C17.2132 0.721221 17.0139 0.656905 16.8209 0.694893C16.6272 0.733633 16.4677 0.869035 16.3989 1.05409L15.72 2.86998C15.5628 2.91512 15.4071 2.96288 15.2517 3.01178L13.6781 1.87929C13.5182 1.76382 13.3098 1.73937 13.1278 1.81535C12.9461 1.89057 12.8156 2.05531 12.784 2.24939L12.4719 4.1642C12.3274 4.23905 12.1845 4.31616 12.0419 4.39476L10.2765 3.58987C10.097 3.50788 9.88792 3.5248 9.72469 3.63463C9.5607 3.7437 9.46479 3.93063 9.47231 4.12734L9.54001 6.07037C9.41439 6.17079 9.2899 6.27347 9.1669 6.37728L7.27466 5.93121C7.08246 5.88645 6.88086 5.94362 6.7417 6.08278C6.60178 6.22232 6.54499 6.42354 6.59012 6.61574L7.03582 8.50837C6.93239 8.63098 6.83008 8.7551 6.72966 8.88072L4.78664 8.81302C4.59068 8.80738 4.40337 8.90141 4.29392 9.0654C4.1841 9.22863 4.16755 9.43775 4.24916 9.61754L5.05406 11.3834C4.97582 11.5252 4.89834 11.6681 4.8235 11.8133L2.90906 12.1247C2.7146 12.1563 2.55062 12.2865 2.47502 12.4685C2.39979 12.6509 2.42424 12.8589 2.53896 13.0188L3.67145 14.5917C3.62218 14.747 3.57441 14.9031 3.52927 15.0603L1.71338 15.7392C1.52908 15.8081 1.3933 15.9675 1.35494 16.1612C1.31657 16.3546 1.38089 16.5535 1.52494 16.6882L2.94554 18.0129C2.92786 18.1727 2.91206 18.3337 2.89852 18.4943L1.24586 19.5173C1.07849 19.6208 0.976562 19.8036 0.976562 20.001C0.976562 20.1985 1.07849 20.3813 1.24586 20.4843L2.89852 21.5074C2.91206 21.6684 2.92786 21.829 2.94554 21.9888L1.52494 23.3139C1.38089 23.4481 1.31657 23.6475 1.35494 23.8404C1.3933 24.0341 1.52908 24.1932 1.71338 24.2624L3.52927 24.9413C3.57441 25.0985 3.62218 25.2546 3.67145 25.41L2.53896 26.9833C2.42386 27.1435 2.39942 27.3515 2.47502 27.5332C2.55062 27.7156 2.71498 27.8457 2.90943 27.8769L4.8235 28.1884C4.89834 28.3335 4.97507 28.4765 5.05406 28.619L4.24916 30.3841C4.16717 30.5635 4.1841 30.7723 4.29392 30.9363C4.40375 31.1006 4.59068 31.1965 4.78664 31.1886L6.72891 31.1206C6.83008 31.2469 6.93201 31.3707 7.03582 31.4937L6.59012 33.3867C6.54499 33.5785 6.60178 33.779 6.7417 33.9185C6.88048 34.0588 7.08246 34.1148 7.27466 34.0697L9.1669 33.624C9.2899 33.7286 9.41439 33.8301 9.54001 33.9302L9.47231 35.8736C9.46479 36.0703 9.5607 36.2568 9.72469 36.3667C9.88792 36.4761 10.097 36.4927 10.2765 36.4107L12.0419 35.6062C12.1841 35.6851 12.327 35.7619 12.4719 35.8367L12.784 37.7504C12.8156 37.9452 12.9458 38.11 13.1278 38.1848C13.3095 38.2604 13.5182 38.236 13.6781 38.1213L15.251 36.988C15.4063 37.0373 15.5624 37.0854 15.7196 37.1306L16.3985 38.9457C16.4674 39.13 16.6268 39.2665 16.8205 39.3041C17.0139 39.3433 17.2128 39.2786 17.3471 39.1341L18.6722 37.7135C18.832 37.732 18.993 37.7474 19.154 37.7617L20.177 39.4143C20.2801 39.581 20.4632 39.6836 20.6603 39.6836C20.8574 39.6836 21.0406 39.5813 21.144 39.4143L22.167 37.7617C22.328 37.7474 22.4886 37.732 22.6485 37.7135L23.9732 39.1341C24.1074 39.2786 24.3068 39.3433 24.4997 39.3041C24.6934 39.2662 24.8529 39.13 24.9217 38.9457L25.6006 37.1306C25.7578 37.0854 25.9139 37.0373 26.0693 36.988L27.6426 38.1213C27.8024 38.236 28.0108 38.2604 28.1924 38.1848C28.3745 38.11 28.5046 37.9449 28.5362 37.7504L28.8484 35.8367C28.9928 35.7619 29.1358 35.684 29.2783 35.6062L31.0438 36.4107C31.2232 36.4927 31.432 36.4761 31.5956 36.3667C31.7596 36.2568 31.8551 36.0707 31.8479 35.8736L31.7802 33.9302C31.9059 33.8297 32.0304 33.7286 32.153 33.624L34.0452 34.0697C34.2374 34.1148 34.439 34.0588 34.5778 33.9185C34.7177 33.779 34.7745 33.5785 34.7294 33.3867L34.2837 31.4937C34.3875 31.3707 34.4898 31.2469 34.5898 31.1206L36.5329 31.1886C36.7288 31.1965 36.9161 31.1006 37.0256 30.9363C37.1354 30.7723 37.1523 30.5635 37.07 30.3841L36.2654 28.619C36.3441 28.4765 36.4212 28.3335 36.4956 28.1884L38.4101 27.8769C38.6049 27.8457 38.7689 27.7156 38.8441 27.5332C38.9193 27.3515 38.8956 27.1435 38.7802 26.9833L37.6477 25.41C37.6966 25.2546 37.7443 25.0985 37.7898 24.9413L39.6054 24.2624C39.79 24.1932 39.9262 24.0341 39.9638 23.8404C40.0029 23.6471 39.9382 23.4481 39.7938 23.3139L38.3736 21.9888C38.3909 21.829 38.4067 21.668 38.4206 21.5074L40.0733 20.4843C40.2406 20.3813 40.3426 20.1981 40.3426 20.001C40.3426 19.8039 40.241 19.6208 40.0736 19.5173ZM29.0124 33.2272C28.3813 33.091 27.9799 32.469 28.1153 31.8359C28.2504 31.2037 28.8721 30.8012 29.5028 30.9374C30.134 31.0724 30.536 31.6957 30.4006 32.3275C30.2652 32.9594 29.6431 33.3622 29.0124 33.2272ZM28.4508 29.4292C27.875 29.3058 27.3086 29.6721 27.1852 30.2491L26.5985 32.9872C24.7878 33.8091 22.7771 34.2657 20.6596 34.2657C18.4935 34.2657 16.4391 33.7865 14.5962 32.9297L14.0098 30.1916C13.8864 29.6153 13.32 29.2483 12.7445 29.372L10.3272 29.891C9.87852 29.4292 9.46103 28.9372 9.07739 28.4178H20.8393C20.9725 28.4178 21.0613 28.3937 21.0613 28.2726V24.112C21.0613 23.9909 20.9725 23.9668 20.8393 23.9668H17.3994V21.3295H21.1199C21.4596 21.3295 22.9358 21.4265 23.4079 23.3135C23.5557 23.8938 23.8803 25.7816 24.1022 26.386C24.3233 27.0638 25.2238 28.4178 26.1832 28.4178H32.0443C32.1108 28.4178 32.1819 28.4103 32.2568 28.3967C31.8502 28.9492 31.4041 29.472 30.9238 29.9606L28.4508 29.4292ZM12.183 33.17C11.5519 33.3062 10.9305 32.9037 10.7947 32.2715C10.6597 31.6381 11.061 31.0164 11.6922 30.8802C12.3233 30.7452 12.945 31.1476 13.0804 31.7799C13.2154 32.4118 12.8137 33.0346 12.183 33.17ZM7.72111 15.0769C7.98289 15.6678 7.71659 16.3602 7.12647 16.6216C6.53634 16.8838 5.84578 16.6171 5.58401 16.0258C5.32223 15.4346 5.58852 14.7433 6.17865 14.4811C6.76915 14.2193 7.45933 14.4856 7.72111 15.0769ZM6.34978 18.3277L8.86789 17.2087C9.40574 16.9699 9.64871 16.3395 9.40988 15.8005L8.89121 14.6278H10.9309V23.8216H6.81579C6.45886 22.5669 6.26741 21.2426 6.26741 19.8739C6.26741 19.3515 6.29562 18.8351 6.34978 18.3277ZM17.4001 17.4348V14.7248H22.2573C22.5082 14.7248 24.0288 15.0148 24.0288 16.1518C24.0288 17.0959 22.8625 17.4344 21.9034 17.4344H17.4001V17.4348ZM35.0521 19.8739C35.0521 20.2335 35.0389 20.5893 35.0126 20.9424H33.536C33.3881 20.9424 33.3287 21.0395 33.3287 21.1843V21.8624C33.3287 23.4587 32.4287 23.8058 31.6399 23.8942C30.8888 23.9788 30.0561 23.5798 29.9534 23.1202C29.5104 20.628 28.772 20.0958 27.6061 19.1762C29.053 18.2573 30.5586 16.9018 30.5586 15.0874C30.5586 13.1282 29.2155 11.8942 28.3 11.289C27.0156 10.4424 25.5935 10.2727 25.2098 10.2727H9.93832C12.0092 7.96149 14.8158 6.32425 17.9903 5.72848L19.7904 7.61697C20.1973 8.04311 20.8713 8.0589 21.2971 7.65157L23.3112 5.72509C27.5316 6.5108 31.1047 9.13799 33.164 12.7423L31.7851 15.8566C31.547 16.3956 31.79 17.0259 32.3275 17.2648L34.9821 18.4439C35.028 18.9152 35.0521 19.3913 35.0521 19.8739ZM19.7911 4.12208C20.2575 3.67525 20.9973 3.69293 21.4438 4.16007C21.8895 4.62833 21.8725 5.36891 21.405 5.81536C20.9386 6.26219 20.1988 6.24489 19.7524 5.777C19.307 5.30948 19.324 4.56891 19.7911 4.12208ZM33.4743 15.1337C33.7357 14.5428 34.4262 14.2761 35.0164 14.5383C35.6065 14.8001 35.8728 15.4921 35.611 16.083C35.3496 16.6743 34.659 16.9409 34.0685 16.6788C33.4792 16.417 33.2129 15.7253 33.4743 15.1337Z" fill="white"/>
</g>
<defs>
<clipPath id="clip0_15_3495">
<rect width="39.366" height="39.366" fill="white" transform="translate(0.976562 0.316895)"/>
</clipPath>
</defs>
</svg>
