<svg width="38" height="30" viewBox="0 0 38 30" fill="none" xmlns="http://www.w3.org/2000/svg">
<g clip-path="url(#clip0_15_3484)">
<path d="M6.26365 22.5813C6.4854 22.3596 6.79031 22.2302 7.1137 22.2302H36.4404C36.9763 22.2302 37.2442 22.877 36.8654 23.2558L31.0721 29.0491C30.8504 29.2708 30.5455 29.4002 30.2221 29.4002H0.895409C0.359509 29.4002 0.0915589 28.7534 0.470385 28.3746L6.26365 22.5813Z" fill="white"/>
<path d="M6.26169 0.951204C6.49269 0.729453 6.7976 0.600098 7.11174 0.600098H36.4384C36.9743 0.600098 37.2423 1.24687 36.8634 1.6257L31.0702 7.41896C30.8484 7.64071 30.5435 7.77007 30.2201 7.77007H0.893456C0.357556 7.77007 0.0896058 7.12329 0.468432 6.74447L6.26169 0.951204Z" fill="white"/>
<path d="M31.0721 11.6968C30.8504 11.4751 30.5455 11.3457 30.2221 11.3457H0.895409C0.359509 11.3457 0.0915589 11.9925 0.470385 12.3713L6.26365 18.1646C6.4854 18.3863 6.79031 18.5157 7.1137 18.5157H36.4404C36.9763 18.5157 37.2442 17.8689 36.8654 17.4901L31.0721 11.6968Z" fill="white"/>
</g>
<defs>
<clipPath id="clip0_15_3484">
<rect width="36.7461" height="28.8" fill="white" transform="translate(0.294922 0.600098)"/>
</clipPath>
</defs>
</svg>
