<svg width="45" height="38" viewBox="0 0 45 38" fill="none" xmlns="http://www.w3.org/2000/svg">
<g clip-path="url(#clip0_15_3527)">
<path d="M33.531 11.6094C32.7411 11.1581 31.7256 11.1581 30.8229 11.6094L24.5041 15.333L20.2164 17.7025L14.0104 21.4261C13.2205 21.8775 12.205 21.8775 11.3023 21.4261L6.45039 18.4924C5.66053 18.041 5.09635 17.1383 5.09635 16.1228V10.481C5.09635 9.57835 5.5477 8.67566 6.45039 8.11148L11.3023 5.29059C12.0922 4.83924 13.1077 4.83924 14.0104 5.29059L18.8623 8.22432C19.6522 8.67566 20.2164 9.57835 20.2164 10.5939V14.3175L24.5041 11.8351V7.99865C24.5041 7.09596 24.0528 6.19327 23.1501 5.6291L14.1232 0.325812C13.3334 -0.125531 12.3178 -0.125531 11.4152 0.325812L2.16262 5.74193C1.25994 6.19327 0.808594 7.09596 0.808594 7.99865V18.6052C0.808594 19.5079 1.25994 20.4106 2.16262 20.9748L11.3023 26.2781C12.0922 26.7294 13.1077 26.7294 14.0104 26.2781L20.2164 22.6673L24.5041 20.1849L30.7101 16.5742C31.4999 16.1228 32.5155 16.1228 33.4181 16.5742L38.2701 19.3951C39.0599 19.8464 39.6241 20.7491 39.6241 21.7646V27.4064C39.6241 28.3091 39.1728 29.2118 38.2701 29.776L33.531 32.5969C32.7411 33.0482 31.7256 33.0482 30.8229 32.5969L25.971 29.776C25.1811 29.3246 24.617 28.4219 24.617 27.4064V23.7957L20.3292 26.2781V30.0016C20.3292 30.9043 20.7805 31.807 21.6832 32.3712L30.8229 37.6745C31.6128 38.1258 32.6283 38.1258 33.531 37.6745L42.6707 32.3712C43.4605 31.9198 44.0247 31.0172 44.0247 30.0016V19.2822C44.0247 18.3795 43.5734 17.4769 42.6707 16.9127L33.531 11.6094Z" fill="white"/>
</g>
<defs>
<clipPath id="clip0_15_3527">
<rect width="43.329" height="37.8" fill="white" transform="translate(0.808594 0.100098)"/>
</clipPath>
</defs>
</svg>
